<svg width="42" height="58" viewBox="0 0 42 58" fill="none" xmlns="http://www.w3.org/2000/svg">
<path d="M21.5649 28.435V56.2823M21.5649 28.435C21.5649 28.435 12.2824 20.4786 3 27.1089V56.2823C12.2824 49.652 21.5649 56.2823 21.5649 56.2823C21.5649 56.2823 30.8473 49.652 40.1298 56.2823V27.1089C30.8473 20.4786 21.5649 28.435 21.5649 28.435Z" stroke="#36ABBC" stroke-width="2" stroke-linecap="round" stroke-linejoin="round"/>
<g clip-path="url(#clip0_78_87)">
<rect x="10.7998" y="22.1" width="20.8" height="19.5" fill="#FEFCEC"/>
<path d="M26.0937 30.5885V31.812C26.4182 31.812 26.7294 31.6831 26.9589 31.4537C27.1883 31.2242 27.3172 30.913 27.3172 30.5885H26.0937ZM16.3055 30.5885H15.082C15.082 30.913 15.2109 31.2242 15.4403 31.4537C15.6698 31.6831 15.981 31.812 16.3055 31.812V30.5885ZM14.4824 22.3982L15.4515 21.6494L14.4824 22.3982ZM27.9168 22.3982L26.9477 21.6494L27.9168 22.3982Z" fill="#36ABBC"/>
<path d="M19.287 38.7681L18.1793 36.5526V34.909H24.2205V36.5526L23.1127 38.7681L22.1542 39.7267H21.1999H20.2456L19.287 38.7681Z" fill="#36ABBC" stroke="#36ABBC" stroke-width="1.3"/>
<mask id="path-5-inside-1_78_87" fill="white">
<path d="M11.6075 15.6614L11.583 15.8327L14.0056 16.1753L14.0301 16.004L11.6075 15.6614Z"/>
</mask>
<path d="M11.6075 15.6614L11.7895 14.3742L10.5041 14.1924L10.3205 15.4775L11.6075 15.6614ZM11.583 15.8327L10.2961 15.6488L10.112 16.9376L11.401 17.1199L11.583 15.8327ZM14.0056 16.1753L13.8236 17.4625L15.1089 17.6442L15.2925 16.3591L14.0056 16.1753ZM14.0301 16.004L15.317 16.1878L15.5011 14.8991L14.2121 14.7168L14.0301 16.004ZM10.3205 15.4775L10.2961 15.6488L12.8699 16.0165L12.8944 15.8452L10.3205 15.4775ZM11.401 17.1199L13.8236 17.4625L14.1876 14.8881L11.765 14.5455L11.401 17.1199ZM15.2925 16.3591L15.317 16.1878L12.7431 15.8201L12.7187 15.9914L15.2925 16.3591ZM14.2121 14.7168L11.7895 14.3742L11.4255 16.9486L13.848 17.2912L14.2121 14.7168Z" fill="#36ABBC" mask="url(#path-5-inside-1_78_87)"/>
<path d="M21.8501 8.01446C23.7922 8.1541 25.644 8.91817 27.1236 10.2015C28.603 11.4847 29.6211 13.2095 30.034 15.112L28.895 15.2731C28.5227 13.6441 27.6413 12.1692 26.3703 11.0673C25.0996 9.96577 23.515 9.30261 21.8501 9.16505V8.01446ZM20.5501 8.01446V9.16488C18.8851 9.30204 17.3002 9.96508 16.0294 11.0667C14.7583 12.1686 13.877 13.6439 13.5052 15.2731L12.3663 15.112C12.7792 13.2095 13.7972 11.4847 15.2767 10.2015C16.7563 8.91817 18.608 8.1541 20.5501 8.01446ZM28.8594 19.2265C29.0743 18.4122 29.1567 17.5701 29.1049 16.7323L29.6977 16.6472L30.2424 16.5702C30.389 18.6449 29.8221 20.6092 28.7495 22.2204L27.8421 21.5174C28.3006 20.8142 28.6445 20.0409 28.8594 19.2265Z" stroke="#36ABBC" stroke-width="1.3"/>
<path d="M24.2205 30.5883V31.1618H18.1793V30.5883V30.0147H24.2205V30.5883ZM25.5205 28.7147V27.3254H26.6676V28.7147H26.094H25.5205ZM16.8793 27.3254V28.7147H16.3058H15.7323V27.3254H16.8793Z" stroke="#36ABBC" stroke-width="1.3"/>
<path d="M12.1566 16.5691L13.2951 16.7324C13.2433 17.5702 13.3257 18.4123 13.5406 19.2266C13.7555 20.0411 14.0994 20.8144 14.5579 21.5176L13.6497 22.2212C13.0988 21.3954 12.6872 20.4832 12.4328 19.5206C12.1782 18.5573 12.0854 17.56 12.1566 16.5691Z" stroke="#36ABBC" stroke-width="1.3"/>
<path d="M15.3244 22.5657C16.0423 23.5717 16.6732 24.7336 16.8378 26.0228H15.6789C15.5228 25.0662 15.0399 24.1493 14.4174 23.2683L15.3244 22.5657ZM27.9828 23.2683C27.3603 24.1493 26.8774 25.0662 26.7214 26.0228H25.5623C25.7267 24.7335 26.3568 23.5725 27.0757 22.5656L27.9828 23.2683Z" stroke="#36ABBC" stroke-width="1.3"/>
<path d="M21.7734 4.24424H20.6263V0.650122H21.7734V4.24424Z" stroke="#36ABBC" stroke-width="1.3"/>
<path d="M7.09104 17.7796V18.9266H3.49692V17.7796H7.09104ZM38.9028 17.7796V18.9266H35.3087V17.7796H38.9028Z" stroke="#36ABBC" stroke-width="1.3"/>
<path d="M7.38388 6.17076L10.1352 8.92211L9.32196 9.73539L6.57061 6.98404L7.38388 6.17076ZM33.078 9.73539L32.2647 8.92211L35.0161 6.17076L35.8294 6.98404L33.078 9.73539Z" stroke="#36ABBC" stroke-width="1.3"/>
</g>
<defs>
<clipPath id="clip0_78_87">
<rect width="41.6" height="41.6" fill="white" transform="translate(0.399902)"/>
</clipPath>
</defs>
</svg>
