<svg width="52" height="52" viewBox="0 0 52 52" fill="none" xmlns="http://www.w3.org/2000/svg">
<g clip-path="url(#clip0_78_75)">
<path d="M10.9071 24.0868C8.85791 24.6025 7.06752 25.8487 5.87234 27.5913C4.67715 29.3339 4.15943 31.453 4.41645 33.5504C4.67347 35.6478 5.68754 37.5791 7.26813 38.9816C8.84872 40.3841 10.887 41.1611 13.0001 41.1667H36.8335C38.3632 41.1656 39.8754 40.8406 41.2705 40.213C42.6656 39.5854 43.9119 38.6695 44.9275 37.5255C45.9431 36.3815 46.7049 35.0354 47.1628 33.5758C47.6206 32.1162 47.7642 30.5761 47.584 29.057C47.4037 27.5379 46.9038 26.0742 46.1172 24.7623C45.3305 23.4503 44.2749 22.3198 43.0198 21.4452C41.7647 20.5706 40.3387 19.9717 38.8354 19.688C37.3322 19.4042 35.786 19.4421 34.2985 19.799L31.4168 20.5833" stroke="#36ABBC" stroke-width="2.6" stroke-linecap="round" stroke-linejoin="round"/>
<path d="M34.2985 19.799C33.558 16.8665 31.7301 14.3254 29.1855 12.6907C26.6408 11.056 23.5698 10.45 20.5949 10.9956C17.62 11.5412 14.9639 13.1975 13.165 15.6289C11.3661 18.0602 10.5589 21.0846 10.9072 24.089C10.9072 24.089 11.2387 26 11.9169 27.0833" stroke="#36ABBC" stroke-width="2.6" stroke-linecap="round" stroke-linejoin="round"/>
<path d="M24.9168 27.6972C18.0664 27.6972 12.5307 33.2708 12.5307 40.0833C12.5307 43.3683 13.8356 46.5188 16.1585 48.8416C17.3086 49.9918 18.6741 50.9041 20.1768 51.5266C21.6796 52.1491 23.2902 52.4694 24.9168 52.4694C28.2018 52.4694 31.3522 51.1645 33.6751 48.8416C35.9979 46.5188 37.3029 43.3683 37.3029 40.0833C37.3029 38.4568 36.9825 36.8461 36.36 35.3434C35.7376 33.8406 34.8252 32.4752 33.6751 31.325C32.5249 30.1749 31.1595 29.2625 29.6567 28.6401C28.154 28.0176 26.5433 27.6972 24.9168 27.6972Z" fill="#36ABBC" stroke="white" stroke-width="1.3"/>
<path d="M30.0338 42.4307C30.1277 41.6561 30.1981 40.8815 30.1981 40.0834C30.1981 39.2854 30.1277 38.5108 30.0338 37.7362H34.0006C34.1884 38.4873 34.3058 39.2736 34.3058 40.0834C34.3058 40.8932 34.1884 41.6795 34.0006 42.4307H30.0338ZM27.9565 48.9559C28.6607 47.6532 29.2006 46.2449 29.5761 44.7779H33.0383C31.9012 46.7358 30.0973 48.2189 27.9565 48.9559Z" fill="#F3F3F3"/>
<path d="M27.6632 42.4306H22.1707C22.0533 41.6561 21.9829 40.8815 21.9829 40.0834C21.9829 39.2854 22.0533 38.4991 22.1707 37.7362H27.6632C27.7688 38.4991 27.851 39.2854 27.851 40.0834C27.851 40.8815 27.7688 41.6561 27.6632 42.4306Z" fill="#F3F3F3"/>
<path d="M24.9169 49.4253C23.9428 48.0169 23.1565 46.456 22.6753 44.7778H27.1585C26.6773 46.456 25.891 48.0169 24.9169 49.4253Z" fill="#F3F3F3"/>
<path d="M20.2223 35.3889H16.7953C17.9207 33.4257 19.7233 31.9402 21.8653 31.2108C21.1612 32.5135 20.633 33.9219 20.2223 35.3889ZM16.7953 44.7778H20.2223C20.633 46.2448 21.1612 47.6531 21.8653 48.9558C19.7277 48.2184 17.9277 46.735 16.7953 44.7778ZM15.833 42.4305C15.6452 41.6794 15.5278 40.8931 15.5278 40.0833C15.5278 39.2735 15.6452 38.4872 15.833 37.7361H19.7998C19.7059 38.5107 19.6355 39.2853 19.6355 40.0833C19.6355 40.8814 19.7059 41.656 19.7998 42.4305" fill="#F3F3F3"/>
<path d="M24.9169 30.7296C25.891 32.1379 26.6773 33.7106 27.1585 35.3888H22.6753C23.1565 33.7106 23.9428 32.1379 24.9169 30.7296Z" fill="#F3F3F3"/>
<path d="M33.0383 35.3889H29.5761C29.2088 33.9353 28.6649 32.5322 27.9565 31.2108C30.116 31.9502 31.9116 33.4407 33.0383 35.3889Z" fill="#F3F3F3"/>
</g>
<defs>
<clipPath id="clip0_78_75">
<rect width="52" height="52" fill="white"/>
</clipPath>
</defs>
</svg>
